<?xml-stylesheet type="text/css" href="../dice_styles.css" ?>
<svg version="1.1" class="die" id="die6" viewBox="0 0 319.17 313.18" xmlns="http://www.w3.org/2000/svg" xmlns:cc="http://creativecommons.org/ns#" xmlns:dc="http://purl.org/dc/elements/1.1/" xmlns:rdf="http://www.w3.org/1999/02/22-rdf-syntax-ns#" xmlns:xlink="http://www.w3.org/1999/xlink">
<defs>
<filter id="h6" color-interpolation-filters="sRGB">
<feGaussianBlur stdDeviation="0.74285713"/>
</filter>
<linearGradient id="g6" x1="264.29" x2="264.29" y1="573.26" y2="649.32" gradientTransform="translate(-156.86 344.61)" gradientUnits="userSpaceOnUse">
<stop class="die_top" offset="0"/>
<stop class="die_upper" offset=".070067"/>
<stop class="die_lower" offset=".93328"/>
<stop class="die_bottom" offset="1"/>
</linearGradient>
<linearGradient id="f6" x1="248.76" x2="249.81" y1="634.69" y2="664.5" gradientTransform="translate(-156.86 344.61)" gradientUnits="userSpaceOnUse">
<stop class="die_edge_top" offset="0"/>
<stop class="die_edge_bottom" offset=".27966"/>
<stop offset="1"/>
</linearGradient>
<radialGradient id="b6" cx="103.59" cy="94.288" r="25.809" gradientTransform="matrix(1 0 0 .84932 0 14.208)" gradientUnits="userSpaceOnUse" xlink:href="#d6"/>
<linearGradient id="d6">
<stop class="die_bright_highlights" offset="0"/>
<stop class="die_highlights" stop-opacity="0" offset="1"/>
</linearGradient>
<filter id="c6" color-interpolation-filters="sRGB">
<feGaussianBlur stdDeviation="0.71376063"/>
</filter>
<linearGradient id="a6" x1="72.832" x2="72.832" y1="20.395" y2="36.658" gradientUnits="userSpaceOnUse" xlink:href="#e6"/>
<linearGradient id="e6">
<stop class="die_hole_top" offset="0"/>
<stop class="die_hole_bottom" offset="1"/>
</linearGradient>
</defs>
<metadata>
<rdf:RDF>
<cc:Work rdf:about="">
<dc:format>image/svg+xml</dc:format>
<dc:type rdf:resource="http://purl.org/dc/dcmitype/StillImage"/>
<dc:title/>
</cc:Work>
</rdf:RDF>
</metadata>
<g transform="translate(-190.41 -375.77)">
<g transform="matrix(4 0 0 4 -87.701 -3297.2)">
<rect x="73.032" y="920.25" width="74.286" height="74.286" ry="9.2857" fill="#888a85" filter="url(#h6)" opacity=".72245" stroke="#888a85" stroke-width=".44291"/>
<rect x="70.282" y="918.75" width="74.286" height="74.286" ry="9.2857" fill="url(#g6)" stroke="url(#f6)" stroke-width=".44291"/>
<path transform="matrix(.85722 0 0 .54844 4.3209 879.78)" d="m129.4 94.288c0 12.106-11.555 21.92-25.809 21.92-14.254 0-25.809-9.8141-25.809-21.92 0-12.106 11.555-21.92 25.809-21.92 14.254 0 25.809 9.8141 25.809 21.92z" fill="url(#b6)" filter="url(#c6)" opacity=".76327"/>
<path transform="matrix(.35623 0 0 .43954 96.878 941.41)" d="m129.4 94.288c0 12.106-11.555 21.92-25.809 21.92-14.254 0-25.809-9.8141-25.809-21.92 0-12.106 11.555-21.92 25.809-21.92 14.254 0 25.809 9.8141 25.809 21.92z" fill="url(#b6)" filter="url(#c6)" opacity=".76327"/>
<path transform="matrix(.87676 0 0 .87676 21.569 930.89)" d="m80.964 28.527c0 4.491-3.6407 8.1317-8.1317 8.1317-4.491 0-8.1317-3.6407-8.1317-8.1317 0-4.491 3.6407-8.1317 8.1317-8.1317 4.491 0 8.1317 3.6407 8.1317 8.1317z" fill="url(#a6)"/>
<path transform="matrix(.87676 0 0 .87676 65.569 930.89)" d="m80.964 28.527c0 4.491-3.6407 8.1317-8.1317 8.1317-4.491 0-8.1317-3.6407-8.1317-8.1317 0-4.491 3.6407-8.1317 8.1317-8.1317 4.491 0 8.1317 3.6407 8.1317 8.1317z" fill="url(#a6)"/>
<path transform="matrix(.87676 0 0 .87676 21.569 906.89)" d="m80.964 28.527c0 4.491-3.6407 8.1317-8.1317 8.1317-4.491 0-8.1317-3.6407-8.1317-8.1317 0-4.491 3.6407-8.1317 8.1317-8.1317 4.491 0 8.1317 3.6407 8.1317 8.1317z" fill="url(#a6)"/>
<path transform="matrix(.87676 0 0 .87676 65.569 906.89)" d="m80.964 28.527c0 4.491-3.6407 8.1317-8.1317 8.1317-4.491 0-8.1317-3.6407-8.1317-8.1317 0-4.491 3.6407-8.1317 8.1317-8.1317 4.491 0 8.1317 3.6407 8.1317 8.1317z" fill="url(#a6)"/>
<path transform="matrix(.87676 0 0 .87676 21.569 952.89)" d="m80.964 28.527c0 4.491-3.6407 8.1317-8.1317 8.1317-4.491 0-8.1317-3.6407-8.1317-8.1317 0-4.491 3.6407-8.1317 8.1317-8.1317 4.491 0 8.1317 3.6407 8.1317 8.1317z" fill="url(#a6)"/>
<path transform="matrix(.87676 0 0 .87676 65.569 952.89)" d="m80.964 28.527c0 4.491-3.6407 8.1317-8.1317 8.1317-4.491 0-8.1317-3.6407-8.1317-8.1317 0-4.491 3.6407-8.1317 8.1317-8.1317 4.491 0 8.1317 3.6407 8.1317 8.1317z" fill="url(#a6)"/>
<path d="m78.326 956.68c-0.0243 0.23968-0.0238 0.4673-0.0238 0.7134 0 3.9375 3.1727 7.134 7.1102 7.134 3.9376 0 7.134-3.1964 7.134-7.134 0-0.2461 5.5e-4 -0.47372-0.0237-0.7134-0.39709 3.5615-3.4427 6.3255-7.1102 6.3255-3.6675 0-6.6894-2.7639-7.0864-6.3255z" class="die_hole_edge"/>
<path d="m122.33 956.68c-0.0243 0.23968-0.0238 0.4673-0.0238 0.7134 0 3.9375 3.1727 7.134 7.1102 7.134 3.9376 0 7.134-3.1964 7.134-7.134 0-0.2461 5.5e-4 -0.47372-0.0237-0.7134-0.39709 3.5615-3.4427 6.3255-7.1102 6.3255-3.6675 0-6.6894-2.7639-7.0864-6.3255z" class="die_hole_edge"/>
<path d="m122.33 978.68c-0.0243 0.23968-0.0238 0.4673-0.0238 0.7134 0 3.9375 3.1727 7.134 7.1102 7.134 3.9376 0 7.134-3.1964 7.134-7.134 0-0.2461 5.5e-4 -0.47372-0.0237-0.7134-0.39709 3.5615-3.4427 6.3255-7.1102 6.3255-3.6675 0-6.6894-2.7639-7.0864-6.3255z" class="die_hole_edge"/>
<path d="m78.326 978.68c-0.0243 0.23968-0.0238 0.4673-0.0238 0.7134 0 3.9375 3.1727 7.134 7.1102 7.134 3.9376 0 7.134-3.1964 7.134-7.134 0-0.2461 5.5e-4 -0.47372-0.0237-0.7134-0.39709 3.5615-3.4427 6.3255-7.1102 6.3255-3.6675 0-6.6894-2.7639-7.0864-6.3255z" class="die_hole_edge"/>
<path d="m78.326 932.68c-0.0243 0.23968-0.0238 0.4673-0.0238 0.7134 0 3.9375 3.1727 7.134 7.1102 7.134 3.9376 0 7.134-3.1964 7.134-7.134 0-0.2461 5.5e-4 -0.47372-0.0237-0.7134-0.39709 3.5615-3.4427 6.3255-7.1102 6.3255-3.6675 0-6.6894-2.7639-7.0864-6.3255z" class="die_hole_edge"/>
<path d="m122.33 932.68c-0.0243 0.23968-0.0238 0.4673-0.0238 0.7134 0 3.9375 3.1727 7.134 7.1102 7.134 3.9376 0 7.134-3.1964 7.134-7.134 0-0.2461 5.5e-4 -0.47372-0.0237-0.7134-0.39709 3.5615-3.4427 6.3255-7.1102 6.3255-3.6675 0-6.6894-2.7639-7.0864-6.3255z" class="die_hole_edge"/>
</g>
</g>
</svg>
